<mxfile host="65bd71144e">
    <diagram id="b4Vp--ZxD3QHj4cQKELW" name="BuyMore Structure">
        <mxGraphModel dx="1177" dy="611" grid="1" gridSize="10" guides="1" tooltips="1" connect="1" arrows="1" fold="1" page="1" pageScale="1" pageWidth="850" pageHeight="1100" math="0" shadow="0">
            <root>
                <mxCell id="0"/>
                <mxCell id="1" parent="0"/>
                <mxCell id="10" value="Admin" style="shape=swimlane;collapsible=0;horizontal=1;startSize=20;" vertex="1" parent="1">
                    <mxGeometry x="10" y="10" width="500" height="500" as="geometry"/>
                </mxCell>
                <mxCell id="11" value="Admin Login" style="rounded=1;whiteSpace=wrap;html=1;" vertex="1" parent="10">
                    <mxGeometry x="40" y="50" width="140" height="40" as="geometry"/>
                </mxCell>
                <mxCell id="12" value="Admin Dashboard" style="rounded=1;whiteSpace=wrap;html=1;" vertex="1" parent="10">
                    <mxGeometry x="40" y="150" width="140" height="40" as="geometry"/>
                </mxCell>
                <mxCell id="13" value="View Users" style="ellipse;whiteSpace=wrap;html=1;" vertex="1" parent="10">
                    <mxGeometry x="240" y="150" width="140" height="40" as="geometry"/>
                </mxCell>
                <mxCell id="14" value="Manage Products" style="ellipse;whiteSpace=wrap;html=1;" vertex="1" parent="10">
                    <mxGeometry x="240" y="220" width="140" height="40" as="geometry"/>
                </mxCell>
                <mxCell id="15" value="Wallet (Revenue)" style="ellipse;whiteSpace=wrap;html=1;" vertex="1" parent="10">
                    <mxGeometry x="240" y="290" width="140" height="40" as="geometry"/>
                </mxCell>
                <mxCell id="16" value="Order Management" style="ellipse;whiteSpace=wrap;html=1;" vertex="1" parent="10">
                    <mxGeometry x="240" y="360" width="140" height="40" as="geometry"/>
                </mxCell>
                <mxCell id="17" value="Comments Management" style="ellipse;whiteSpace=wrap;html=1;" vertex="1" parent="10">
                    <mxGeometry x="240" y="430" width="140" height="40" as="geometry"/>
                </mxCell>
                <mxCell id="18" style="edgeStyle=orthogonalEdgeStyle;rounded=1;orthogonalLoop=1;" edge="1" parent="10" source="11" target="12">
                    <mxGeometry relative="1" as="geometry"/>
                </mxCell>
                <mxCell id="19" value="User" style="shape=swimlane;collapsible=0;horizontal=1;startSize=20;" vertex="1" parent="1">
                    <mxGeometry x="600" y="10" width="500" height="500" as="geometry"/>
                </mxCell>
                <mxCell id="20" value="User Login/Signup" style="rounded=1;whiteSpace=wrap;html=1;" vertex="1" parent="19">
                    <mxGeometry x="40" y="50" width="140" height="40" as="geometry"/>
                </mxCell>
                <mxCell id="21" value="User Dashboard" style="rounded=1;whiteSpace=wrap;html=1;" vertex="1" parent="19">
                    <mxGeometry x="40" y="150" width="140" height="40" as="geometry"/>
                </mxCell>
                <mxCell id="22" value="Browse Products" style="ellipse;whiteSpace=wrap;html=1;" vertex="1" parent="19">
                    <mxGeometry x="240" y="150" width="140" height="40" as="geometry"/>
                </mxCell>
                <mxCell id="23" value="Add to Cart" style="ellipse;whiteSpace=wrap;html=1;" vertex="1" parent="19">
                    <mxGeometry x="240" y="220" width="140" height="40" as="geometry"/>
                </mxCell>
                <mxCell id="24" value="Comment" style="ellipse;whiteSpace=wrap;html=1;" vertex="1" parent="19">
                    <mxGeometry x="240" y="290" width="140" height="40" as="geometry"/>
                </mxCell>
                <mxCell id="25" value="Checkout" style="ellipse;whiteSpace=wrap;html=1;" vertex="1" parent="19">
                    <mxGeometry x="240" y="360" width="140" height="40" as="geometry"/>
                </mxCell>
                <mxCell id="26" value="Order History" style="ellipse;whiteSpace=wrap;html=1;" vertex="1" parent="19">
                    <mxGeometry x="240" y="430" width="140" height="40" as="geometry"/>
                </mxCell>
                <mxCell id="27" style="edgeStyle=orthogonalEdgeStyle;rounded=1;orthogonalLoop=1;" edge="1" parent="19" source="20" target="21">
                    <mxGeometry relative="1" as="geometry"/>
                </mxCell>
                <mxCell id="30" value="" style="shape=flexArrow;endArrow=classic;startArrow=classic;html=1;" edge="1" parent="1">
                    <mxGeometry width="100" height="100" relative="1" as="geometry">
                        <mxPoint x="510" y="280" as="sourcePoint"/>
                        <mxPoint x="600" y="280" as="targetPoint"/>
                        <Array as="points">
                            <mxPoint x="570" y="280"/>
                        </Array>
                    </mxGeometry>
                </mxCell>
            </root>
        </mxGraphModel>
    </diagram>
</mxfile>